<?xml version="1.0" encoding="UTF-8"?>
<svg id="Layer_2" data-name="Layer 2" xmlns="http://www.w3.org/2000/svg" viewBox="0 0 848.38 909.94">
  <defs>
    <style>
      .cls-1 {
        fill: #e9762b;
      }
    </style>
  </defs>
  <g id="Page_1" data-name="Page 1">
    <g>
      <circle class="cls-1" cx="424.19" cy="65" r="65"/>
      <path class="cls-1" d="M53.97,316.27c31.09,17.95,70.84,7.3,88.79-23.79,17.95-31.09,7.3-70.84-23.79-88.79-31.09-17.95-70.84-7.3-88.79,23.79-17.95,31.09-7.3,70.84,23.79,88.79Z"/>
      <path class="cls-1" d="M142.75,617.46c-17.95-31.09-57.7-41.74-88.79-23.79-31.09,17.95-41.74,57.7-23.79,88.79,17.95,31.09,57.7,41.74,88.79,23.79,31.09-17.95,41.74-57.7,23.79-88.79Z"/>
      <circle class="cls-1" cx="424.19" cy="844.94" r="65"/>
      <path class="cls-1" d="M848.38,422.2l-25.53-59.77c-31.94,13.64-61.7,30.73-89.09,50.57-58.92-54.9-100.34-126.65-118.43-205.13,30.88-13.8,60.56-31.04,88.34-51.87l-39-52c-18.74,14.06-38.49,26.2-58.94,36.53-1.27-22.88-.63-46.05,2.17-69.31l-64.53-7.77c-4.15,34.48-4.24,68.8-.75,102.44-77.01,23.57-159.85,23.57-236.86,0,3.49-33.64,3.4-67.96-.75-102.44l-64.53,7.77c2.8,23.26,3.44,46.43,2.17,69.31-20.45-10.34-40.2-22.48-58.94-36.53l-39,52c27.79,20.84,57.46,38.07,88.34,51.87-18.09,78.48-59.51,150.22-118.43,205.13-27.39-19.84-57.15-36.92-89.09-50.57L0,422.2c21.54,9.2,41.93,20.23,61.1,32.77-19.18,12.54-39.56,23.57-61.1,32.77l25.53,59.78c31.94-13.64,61.7-30.73,89.09-50.57,58.92,54.9,100.34,126.65,118.43,205.13-30.88,13.8-60.56,31.04-88.35,51.87l39,51.99c18.74-14.06,38.49-26.2,58.94-36.53,1.27,22.88.64,46.05-2.17,69.31l64.53,7.77c4.15-34.48,4.24-68.8.75-102.44,77.01-23.57,159.85-23.57,236.86,0-3.49,33.64-3.4,67.96.75,102.44l64.53-7.77c-2.8-23.26-3.44-46.43-2.17-69.31,20.45,10.34,40.2,22.48,58.94,36.53l39-51.99c-27.79-20.84-57.47-38.07-88.35-51.87,18.09-78.48,59.51-150.22,118.43-205.13,27.39,19.84,57.16,36.93,89.09,50.57l25.53-59.78c-21.54-9.2-41.93-20.23-61.1-32.77,19.18-12.54,39.56-23.57,61.1-32.77ZM508.61,503.72c-26.86,46.51-86.59,62.54-133.17,35.68-46.58-26.87-62.54-86.66-35.67-133.17,18.05-31.27,50.84-48.75,84.57-48.75,16.54,0,33.29,4.19,48.6,13.07,46.58,26.87,62.54,86.59,35.67,133.17ZM620.23,530.62l-41.85-24.17c23.9-71.78-4.98-153.03-72.94-192.24-37.55-21.67-81.39-27.44-123.28-16.25-41.96,11.27-76.98,38.13-98.72,75.76-44.77,77.56-18.05,177.15,59.51,221.92,25.49,14.73,53.44,21.74,80.96,21.74,45.79,0,90.63-19.35,121.9-54.67,0,0,0,0,0,0l41.92,24.2c-14.44,29.54-25.85,60.59-33.85,92.69-84.57-24.25-174.81-24.25-259.38,0-21.28-85.37-66.41-163.52-129.69-224.64,63.29-61.12,108.41-139.27,129.69-224.63,42.29,12.13,85.99,18.22,129.69,18.22s87.41-6.09,129.69-18.22c21.28,85.37,66.41,163.52,129.69,224.63-23.79,22.98-44.99,48.38-63.35,75.65Z"/>
      <path class="cls-1" d="M794.42,593.67c-31.09-17.95-70.84-7.3-88.79,23.79-17.95,31.09-7.3,70.84,23.79,88.79,31.09,17.95,70.84,7.3,88.79-23.79,17.95-31.09,7.3-70.84-23.79-88.79Z"/>
      <path class="cls-1" d="M705.63,292.48c17.95,31.09,57.7,41.74,88.79,23.79,31.09-17.95,41.74-57.7,23.79-88.79-17.95-31.09-57.7-41.74-88.79-23.79-31.09,17.95-41.74,57.7-23.79,88.79Z"/>
    </g>
  </g>
</svg>