<?xml version="1.0" encoding="UTF-8"?>
<svg id="Page_1" data-name="Page 1" xmlns="http://www.w3.org/2000/svg" viewBox="0 0 1300 900">
  <defs>
    <style>
      .cls-1 {
        fill: #e9762b;
      }

      .cls-2 {
        fill: #0d4715;
      }
    </style>
  </defs>
  <g>
    <path class="cls-2" d="M561.49,446.05c-10.1,0-17.75-7.74-17.75-17.89s7.66-17.97,17.75-17.97c8.37,0,15.04,5.54,16.64,13.7h-7.46c-1.41-4.06-4.85-6.6-9.18-6.6-5.82,0-10.22,4.69-10.22,10.87s4.4,10.79,10.22,10.79c4.52,0,8.01-2.73,9.25-7.09h7.5c-1.55,8.5-8.23,14.19-16.74,14.19h0Z"/>
    <path class="cls-2" d="M582.12,409.22h7.17v36.08h-7.17v-36.08Z"/>
    <path class="cls-2" d="M622.19,418.74v26.52h-5.62l-.62-2.37c-2.28,1.99-5.25,3.16-8.59,3.16-7.98,0-13.91-6.02-13.91-14.05s5.93-13.97,13.91-13.97c3.4,0,6.42,1.2,8.71,3.24l.77-2.53h5.35ZM615.16,432c0-4.17-3.05-7.27-7.22-7.27s-7.23,3.11-7.23,7.27,3.06,7.27,7.23,7.27,7.22-3.1,7.22-7.27Z"/>
    <path class="cls-2" d="M644.01,418.64v6.77h-3.11c-4.04,0-5.64,1.79-5.64,6.13v13.78h-7.17v-26.52h4.6l1.27,3.25c1.89-2.35,4.29-3.4,7.69-3.4h2.36Z"/>
    <path class="cls-2" d="M647.09,418.78h7.17v26.52h-7.17v-26.52ZM647.11,408.58h7.14v6.67h-7.14v-6.67Z"/>
    <path class="cls-2" d="M676.38,438.92v6.39h-5.09c-5.84,0-9.42-3.59-9.42-9.47v-11.29h-4.8v-1.55l10.48-11.14h1.37v6.92h7.32v5.76h-7.2v10.34c0,2.56,1.47,4.04,4.09,4.04h3.26Z"/>
    <path class="cls-2" d="M706.25,418.78l-11.56,26.17c-3.18,7.19-5.97,9.91-11.93,9.91h-2.96v-6.45h2.48c3.46,0,4.35-.92,5.98-4.93l.1-.22-11.24-24.49h7.8l7.08,16.32,6.61-16.32h7.63Z"/>
    <path class="cls-2" d="M717.04,410.92h7.44v34.38h-7.44v-34.38Z"/>
    <path class="cls-2" d="M770.11,428.67v16.63h-7.17v-15.45c0-3.54-1.39-5.41-3.99-5.41-3.2,0-5.1,2.36-5.1,6.51v14.35h-6.99v-15.45c0-3.54-1.35-5.41-3.92-5.41-3.24,0-5.18,2.36-5.18,6.51v14.35h-7.17v-26.52h5.01l1.34,3.29c1.88-2.38,4.79-3.92,7.91-3.92,3.37,0,6.16,1.58,7.7,4.24,1.81-2.58,4.83-4.24,8.21-4.24,5.49,0,9.34,4.3,9.34,10.52Z"/>
    <path class="cls-2" d="M790.14,418.03c7.99,0,13.9,5.97,13.9,14.01s-5.91,14.05-13.9,14.05c-2.75,0-5.24-.81-7.3-2.23v11h-7.17v-36.08h4.74l1.22,2.41c2.25-2,5.19-3.16,8.5-3.16h0ZM796.78,432.04c0-4.17-3.05-7.27-7.22-7.27s-7.23,3.11-7.23,7.27,3.06,7.27,7.23,7.27,7.22-3.1,7.22-7.27Z"/>
    <path class="cls-2" d="M835.19,418.74v26.52h-5.62l-.62-2.37c-2.28,1.99-5.25,3.16-8.59,3.16-7.98,0-13.91-6.02-13.91-14.05s5.93-13.97,13.91-13.97c3.4,0,6.42,1.2,8.71,3.24l.77-2.53h5.35ZM828.17,432c0-4.17-3.05-7.27-7.22-7.27s-7.23,3.11-7.23,7.27,3.06,7.27,7.23,7.27,7.22-3.1,7.22-7.27Z"/>
    <path class="cls-2" d="M839.35,431.96c0-7.95,6.06-13.93,14.12-13.93,6.87,0,12.2,4.35,13.49,10.88h-7.12c-1.16-2.61-3.55-4.14-6.41-4.14-3.89,0-6.81,3.12-6.81,7.23s2.97,7.31,6.81,7.31c2.9,0,5.19-1.61,6.4-4.45h7.22c-1.25,6.67-6.68,11.19-13.62,11.19-7.98,0-14.08-6.14-14.08-14.09Z"/>
    <path class="cls-2" d="M886.89,438.92v6.39h-5.1c-5.84,0-9.42-3.59-9.42-9.47v-11.29h-4.8v-1.55l10.48-11.14h1.37v6.92h7.32v5.76h-7.2v10.34c0,2.56,1.47,4.04,4.08,4.04h3.26Z"/>
    <path class="cls-1" d="M550.79,460.54v11.35h13.73v4h-13.73v14.95h-4.31v-34.38h19.32v4.09h-15.01Z"/>
    <path class="cls-1" d="M570.53,454.93h4.52v4.79h-4.52v-4.79ZM570.7,464.32h4.18v26.52h-4.18v-26.52Z"/>
    <path class="cls-1" d="M605.81,474.95v15.89h-4.18v-14.9c0-5.38-2.53-8.39-7.14-8.39s-8.03,3.84-8.03,8.82v14.47h-4.17v-26.52h2.96l.81,4.16c2-2.95,5.39-4.74,9.5-4.74,6.3,0,10.24,4.73,10.24,11.22Z"/>
    <path class="cls-1" d="M638.78,464.32v26.52h-3.46l-.44-4.02c-2.45,2.85-6.1,4.6-10.41,4.6-7.84,0-13.73-5.94-13.73-13.84s5.89-13.84,13.73-13.84c4.34,0,8.02,1.76,10.46,4.65l.52-4.07h3.32ZM634.51,477.58c0-5.64-4.1-9.8-9.73-9.8s-9.78,4.22-9.78,9.8,4.16,9.8,9.78,9.8,9.73-4.16,9.73-9.8Z"/>
    <path class="cls-1" d="M669.7,474.95v15.89h-4.18v-14.9c0-5.38-2.53-8.39-7.14-8.39s-8.03,3.84-8.03,8.82v14.47h-4.17v-26.52h2.96l.81,4.16c2-2.95,5.39-4.74,9.5-4.74,6.3,0,10.24,4.73,10.24,11.22Z"/>
    <path class="cls-1" d="M674.64,477.58c0-7.91,5.94-13.84,13.78-13.84,6.32,0,11.29,3.77,12.89,9.52h-4.13c-1.56-3.4-4.85-5.48-8.76-5.48-5.44,0-9.52,4.26-9.52,9.8s4.12,9.8,9.52,9.8c3.9,0,7.1-2.07,8.72-5.62h4.22c-1.62,5.85-6.68,9.66-12.95,9.66-7.84,0-13.78-5.94-13.78-13.84Z"/>
    <path class="cls-1" d="M730.92,479.2h-22.61c.66,4.91,4.31,8.14,9.34,8.14,3.67,0,6.62-1.72,8.26-4.58h4.4c-2.24,5.47-6.91,8.67-12.66,8.67-7.69,0-13.53-5.94-13.53-13.85s5.83-13.84,13.53-13.84,13.37,6.2,13.37,13.95c0,.5-.04,1.01-.09,1.51ZM717.64,467.69c-4.82,0-8.38,3.03-9.24,7.65h18.42c-.9-4.72-4.49-7.65-9.18-7.65h0Z"/>
  </g>
  <g>
    <circle class="cls-1" cx="466.07" cy="401.31" r="8.11"/>
    <path class="cls-1" d="M419.85,432.68c3.88,2.24,8.84.91,11.09-2.97,2.24-3.88.91-8.84-2.97-11.09-3.88-2.24-8.84-.91-11.09,2.97-2.24,3.88-.91,8.84,2.97,11.09Z"/>
    <path class="cls-1" d="M430.93,470.29c-2.24-3.88-7.2-5.21-11.09-2.97-3.88,2.24-5.21,7.2-2.97,11.09,2.24,3.88,7.2,5.21,11.09,2.97,3.88-2.24,5.21-7.2,2.97-11.09Z"/>
    <circle class="cls-1" cx="466.07" cy="498.69" r="8.11"/>
    <path class="cls-1" d="M519.04,445.91l-3.19-7.46c-3.99,1.7-7.7,3.84-11.12,6.31-7.36-6.85-12.53-15.81-14.79-25.61,3.86-1.72,7.56-3.87,11.03-6.48l-4.87-6.49c-2.34,1.76-4.81,3.27-7.36,4.56-.16-2.86-.08-5.75.27-8.65l-8.06-.97c-.52,4.31-.53,8.59-.09,12.79-9.61,2.94-19.96,2.94-29.57,0,.44-4.2.42-8.48-.09-12.79l-8.06.97c.35,2.9.43,5.8.27,8.65-2.55-1.29-5.02-2.81-7.36-4.56l-4.87,6.49c3.47,2.6,7.17,4.75,11.03,6.48-2.26,9.8-7.43,18.76-14.79,25.61-3.42-2.48-7.14-4.61-11.12-6.31l-3.19,7.46c2.69,1.15,5.23,2.53,7.63,4.09-2.39,1.57-4.94,2.94-7.63,4.09l3.19,7.46c3.99-1.7,7.7-3.84,11.12-6.31,7.36,6.86,12.53,15.81,14.79,25.61-3.86,1.72-7.56,3.87-11.03,6.48l4.87,6.49c2.34-1.76,4.81-3.27,7.36-4.56.16,2.86.08,5.75-.27,8.65l8.06.97c.52-4.31.53-8.59.09-12.79,9.61-2.94,19.96-2.94,29.57,0-.44,4.2-.42,8.49.09,12.79l8.06-.97c-.35-2.9-.43-5.8-.27-8.65,2.55,1.29,5.02,2.81,7.36,4.56l4.87-6.49c-3.47-2.6-7.17-4.75-11.03-6.48,2.26-9.8,7.43-18.76,14.79-25.61,3.42,2.48,7.14,4.61,11.12,6.31l3.19-7.46c-2.69-1.15-5.23-2.53-7.63-4.09,2.39-1.57,4.94-2.94,7.63-4.09ZM476.61,456.09c-3.35,5.81-10.81,7.81-16.63,4.45-5.82-3.35-7.81-10.82-4.45-16.63,2.25-3.9,6.35-6.09,10.56-6.09,2.06,0,4.16.52,6.07,1.63,5.82,3.35,7.81,10.81,4.45,16.63ZM490.55,459.45l-5.23-3.02c2.98-8.96-.62-19.11-9.11-24-4.69-2.7-10.16-3.43-15.39-2.03-5.24,1.41-9.61,4.76-12.33,9.46-5.59,9.68-2.25,22.12,7.43,27.71,3.18,1.84,6.67,2.71,10.11,2.71,5.72,0,11.32-2.42,15.22-6.83,0,0,0,0,0,0l5.23,3.02c-1.8,3.69-3.23,7.57-4.23,11.57-10.56-3.03-21.83-3.03-32.39,0-2.66-10.66-8.29-20.42-16.19-28.05,7.9-7.63,13.54-17.39,16.19-28.05,5.28,1.51,10.74,2.27,16.19,2.27s10.91-.76,16.19-2.27c2.66,10.66,8.29,20.42,16.19,28.05-2.97,2.87-5.62,6.04-7.91,9.45Z"/>
    <path class="cls-1" d="M512.3,467.32c-3.88-2.24-8.84-.91-11.09,2.97-2.24,3.88-.91,8.84,2.97,11.09,3.88,2.24,8.84.91,11.09-2.97,2.24-3.88.91-8.84-2.97-11.09Z"/>
    <path class="cls-1" d="M501.21,429.71c2.24,3.88,7.2,5.21,11.09,2.97s5.21-7.2,2.97-11.09c-2.24-3.88-7.2-5.21-11.09-2.97-3.88,2.24-5.21,7.2-2.97,11.09Z"/>
  </g>
</svg>