<?xml version="1.0" encoding="UTF-8"?>
<svg id="Layer_2" data-name="Layer 2" xmlns="http://www.w3.org/2000/svg" viewBox="0 0 2320.9 556.54">
  <defs>
    <style>
      .cls-1 {
        fill: #e9762b;
      }

      .cls-2 {
        fill: #ffffff;
      }
    </style>
  </defs>
  <g id="Page_1" data-name="Page 1">
    <g>
      <g>
        <path class="cls-2" d="M726.86,258.91c-49.46,0-86.97-37.91-86.97-87.65s37.51-88.05,86.97-88.05c40.99,0,73.69,27.13,81.5,67.09h-36.53c-6.89-19.88-23.73-32.31-44.97-32.31-28.5,0-50.05,22.97-50.05,53.26s21.54,52.87,50.05,52.87c22.16,0,39.24-13.39,45.3-34.72h36.73c-7.61,41.65-40.31,69.5-82.03,69.5h0Z"/>
        <path class="cls-2" d="M827.91,78.52h35.13v176.76h-35.13V78.52Z"/>
        <path class="cls-2" d="M1024.19,125.15v129.93h-27.54l-3.02-11.63c-11.16,9.77-25.71,15.5-42.1,15.5-39.09,0-68.16-29.51-68.16-68.84s29.07-68.44,68.16-68.44c16.68,0,31.45,5.88,42.69,15.89l3.75-12.41h26.22ZM989.76,190.12c0-20.41-14.96-35.61-35.37-35.61s-35.41,15.25-35.41,35.61,15,35.61,35.41,35.61,35.37-15.2,35.37-35.61Z"/>
        <path class="cls-2" d="M1131.1,124.63v33.14h-15.24c-19.8,0-27.63,8.77-27.63,30.01v67.5h-35.13V125.35h22.53l6.24,15.92c9.25-11.49,20.99-16.64,37.68-16.64h11.55Z"/>
        <path class="cls-2" d="M1146.21,125.35h35.13v129.93h-35.13V125.35ZM1146.27,75.37h35v32.66h-35v-32.66Z"/>
        <path class="cls-2" d="M1289.69,224v31.28h-24.96c-28.59,0-46.15-17.56-46.15-46.4v-55.29h-23.49v-7.59l51.32-54.55h6.72v33.91h35.85v28.24h-35.26v50.64c0,12.55,7.22,19.77,20.01,19.77h15.97Z"/>
        <path class="cls-2" d="M1436,125.35l-56.63,128.2c-15.57,35.22-29.27,48.56-58.42,48.56h-14.48v-31.59h12.16c16.93,0,21.33-4.5,29.31-24.15l.49-1.05-55.04-119.97h38.23l34.66,79.93,32.36-79.93h37.36Z"/>
        <path class="cls-2" d="M1488.83,86.85h36.44v168.43h-36.44V86.85Z"/>
        <path class="cls-2" d="M1748.82,173.8v81.48h-35.13v-75.68c0-17.34-6.8-26.49-19.53-26.49-15.68,0-24.98,11.55-24.98,31.89v70.28h-34.25v-75.68c0-17.34-6.61-26.49-19.18-26.49-15.88,0-25.37,11.55-25.37,31.89v70.28h-35.13V125.35h24.54l6.59,16.11c9.22-11.64,23.45-19.2,38.76-19.2,16.53,0,30.18,7.73,37.72,20.79,8.88-12.62,23.68-20.79,40.22-20.79,26.88,0,45.76,21.09,45.76,51.54Z"/>
        <path class="cls-2" d="M1846.97,121.67c39.13,0,68.07,29.27,68.07,68.64s-28.94,68.84-68.07,68.84c-13.46,0-25.67-3.97-35.74-10.94v53.9h-35.13V125.35h23.23l6,11.81c11.03-9.77,25.44-15.49,41.65-15.49h0ZM1879.47,190.31c0-20.41-14.96-35.61-35.37-35.61s-35.41,15.24-35.41,35.61,15,35.61,35.41,35.61,35.37-15.2,35.37-35.61Z"/>
        <path class="cls-2" d="M2067.66,125.15v129.93h-27.54l-3.02-11.63c-11.16,9.77-25.71,15.5-42.1,15.5-39.09,0-68.16-29.51-68.16-68.84s29.07-68.44,68.16-68.44c16.68,0,31.45,5.88,42.69,15.89l3.75-12.41h26.22ZM2033.23,190.12c0-20.41-14.96-35.61-35.37-35.61s-35.41,15.25-35.41,35.61,15,35.61,35.41,35.61,35.37-15.2,35.37-35.61Z"/>
        <path class="cls-2" d="M2088.04,189.91c0-38.93,29.71-68.25,69.19-68.25,33.64,0,59.76,21.33,66.08,53.31h-34.89c-5.69-12.77-17.39-20.28-31.39-20.28-19.05,0-33.38,15.29-33.38,35.42s14.57,35.81,33.38,35.81c14.19,0,25.42-7.9,31.35-21.79h35.37c-6.12,32.66-32.72,54.82-66.72,54.82-39.09,0-68.99-30.1-68.99-69.04Z"/>
        <path class="cls-2" d="M2320.9,224v31.28h-24.96c-28.58,0-46.15-17.56-46.15-46.4v-55.29h-23.49v-7.59l51.31-54.55h6.71v33.91h35.85v28.24h-35.26v50.64c0,12.55,7.22,19.77,20.01,19.77h15.97Z"/>
        <path class="cls-1" d="M674.46,329.91v55.62h67.26v19.58h-67.26v73.21h-21.11v-168.43h94.63v20.01h-73.52Z"/>
        <path class="cls-1" d="M771.14,302.44h22.15v23.46h-22.15v-23.46ZM771.99,348.4h20.45v129.93h-20.45v-129.93Z"/>
        <path class="cls-1" d="M943.96,400.5v77.83h-20.45v-73c0-26.36-12.38-41.08-34.97-41.08s-39.32,18.81-39.32,43.19v70.89h-20.45v-129.93h14.52l3.98,20.37c9.8-14.46,26.41-23.21,46.54-23.21,30.86,0,50.15,23.19,50.15,54.95Z"/>
        <path class="cls-1" d="M1105.47,348.4v129.93h-16.94l-2.16-19.69c-11.98,13.99-29.89,22.53-50.98,22.53-38.41,0-67.25-29.12-67.25-67.81s28.83-67.81,67.25-67.81c21.25,0,39.27,8.61,51.25,22.76l2.55-19.91h16.28ZM1084.58,413.36c0-27.63-20.1-48.02-47.65-48.02s-47.89,20.67-47.89,48.02,20.38,48.02,47.89,48.02,47.65-20.38,47.65-48.02Z"/>
        <path class="cls-1" d="M1256.97,400.5v77.83h-20.45v-73c0-26.36-12.38-41.08-34.97-41.08s-39.32,18.81-39.32,43.19v70.89h-20.45v-129.93h14.52l3.98,20.37c9.8-14.46,26.41-23.21,46.54-23.21,30.86,0,50.15,23.19,50.15,54.95Z"/>
        <path class="cls-1" d="M1281.15,413.36c0-38.74,29.07-67.81,67.51-67.81,30.98,0,55.3,18.47,63.16,46.64h-20.26c-7.65-16.67-23.77-26.85-42.91-26.85-26.67,0-46.62,20.86-46.62,48.02s20.19,48.02,46.62,48.02c19.12,0,34.8-10.16,42.73-27.53h20.69c-7.93,28.67-32.72,47.32-63.43,47.32-38.41,0-67.51-29.11-67.51-67.81Z"/>
        <path class="cls-1" d="M1556.83,421.29h-110.77c3.21,24.06,21.12,39.87,45.73,39.87,17.98,0,32.44-8.4,40.45-22.44h21.57c-11,26.8-33.84,42.45-62.02,42.45-37.69,0-66.26-29.11-66.26-67.83s28.57-67.79,66.26-67.79,65.48,30.39,65.48,68.34c0,2.45-.22,4.93-.44,7.39ZM1491.79,364.91c-23.59,0-41.03,14.85-45.26,37.47h90.23c-4.39-23.13-21.98-37.47-44.97-37.47h0Z"/>
      </g>
      <g>
        <circle class="cls-1" cx="259.45" cy="39.75" r="39.75"/>
        <path class="cls-1" d="M33.01,193.44c19.01,10.98,43.33,4.46,54.3-14.55,10.98-19.01,4.46-43.33-14.55-54.3-19.01-10.98-43.33-4.46-54.3,14.55-10.98,19.01-4.46,43.33,14.55,54.3Z"/>
        <path class="cls-1" d="M87.31,377.65c-10.98-19.01-35.29-25.53-54.3-14.55-19.01,10.98-25.53,35.29-14.55,54.3,10.98,19.01,35.29,25.53,54.3,14.55,19.01-10.98,25.53-35.29,14.55-54.3Z"/>
        <circle class="cls-1" cx="259.45" cy="516.79" r="39.75"/>
        <path class="cls-1" d="M518.89,258.23l-15.61-36.56c-19.53,8.34-37.74,18.79-54.49,30.93-36.04-33.58-61.37-77.46-72.44-125.46,18.89-8.44,37.04-18.98,54.03-31.73l-23.85-31.8c-11.46,8.6-23.54,16.02-36.05,22.34-.78-13.99-.39-28.17,1.33-42.39l-39.47-4.75c-2.54,21.09-2.59,42.08-.46,62.65-47.1,14.42-97.77,14.42-144.87,0,2.13-20.58,2.08-41.57-.46-62.65l-39.47,4.75c1.71,14.23,2.1,28.4,1.33,42.39-12.51-6.32-24.59-13.75-36.05-22.34l-23.85,31.8c17,12.75,35.15,23.29,54.03,31.73-11.07,48-36.4,91.88-72.44,125.46-16.75-12.14-34.96-22.58-54.49-30.93L0,258.23c13.18,5.63,25.64,12.37,37.37,20.04-11.73,7.67-24.2,14.42-37.37,20.04l15.61,36.56c19.53-8.34,37.74-18.79,54.49-30.93,36.04,33.58,61.37,77.46,72.44,125.46-18.89,8.44-37.04,18.98-54.03,31.73l23.85,31.8c11.46-8.6,23.54-16.02,36.05-22.34.78,13.99.39,28.17-1.33,42.39l39.47,4.75c2.54-21.09,2.59-42.08.46-62.66,47.1-14.42,97.77-14.42,144.87,0-2.13,20.58-2.08,41.57.46,62.66l39.47-4.75c-1.71-14.23-2.1-28.4-1.33-42.39,12.51,6.32,24.59,13.75,36.05,22.34l23.85-31.8c-17-12.75-35.15-23.29-54.03-31.73,11.06-48,36.4-91.88,72.44-125.46,16.75,12.14,34.96,22.59,54.49,30.93l15.61-36.56c-13.18-5.63-25.64-12.37-37.37-20.04,11.73-7.67,24.2-14.42,37.37-20.04ZM311.08,308.09c-16.43,28.45-52.96,38.25-81.45,21.82-28.49-16.43-38.25-53-21.82-81.45,11.04-19.13,31.1-29.81,51.72-29.81,10.12,0,20.36,2.56,29.73,7.99,28.49,16.43,38.25,52.96,21.82,81.45ZM379.35,324.54l-25.6-14.78c14.62-43.9-3.05-93.6-44.61-117.58-22.97-13.25-49.78-16.78-75.4-9.94-25.66,6.89-47.08,23.32-60.38,46.33-27.39,47.44-11.04,108.35,36.4,135.73,15.59,9.01,32.69,13.3,49.51,13.3,28,0,55.43-11.84,74.56-33.44,0,0,0,0,0,0l25.64,14.8c-8.83,18.07-15.81,37.06-20.7,56.69-51.72-14.83-106.92-14.83-158.64,0-13.02-52.21-40.62-100.01-79.32-137.39,38.71-37.38,66.3-85.18,79.32-137.39,25.86,7.42,52.59,11.14,79.32,11.14s53.46-3.73,79.32-11.14c13.02,52.21,40.62,100.01,79.32,137.39-14.55,14.05-27.52,29.59-38.74,46.27Z"/>
        <path class="cls-1" d="M485.89,363.1c-19.01-10.98-43.33-4.46-54.3,14.55-10.98,19.01-4.46,43.33,14.55,54.3,19.01,10.98,43.33,4.46,54.3-14.55,10.98-19.01,4.46-43.33-14.55-54.3Z"/>
        <path class="cls-1" d="M431.58,178.89c10.98,19.01,35.29,25.53,54.3,14.55,19.01-10.98,25.53-35.29,14.55-54.3-10.98-19.01-35.29-25.53-54.3-14.55-19.01,10.98-25.53,35.29-14.55,54.3Z"/>
      </g>
    </g>
  </g>
</svg>